<?xml version="1.0" encoding="UTF-8" standalone="no"?>
<!DOCTYPE svg PUBLIC "-//W3C//DTD SVG 1.1//EN" "http://www.w3.org/Graphics/SVG/1.1/DTD/svg11.dtd">
<!-- 由 Microsoft Visio, SVG Export 生成 partition_layout_secureboot.svg secureboot -->
<svg xmlns="http://www.w3.org/2000/svg" xmlns:xlink="http://www.w3.org/1999/xlink" xmlns:ev="http://www.w3.org/2001/xml-events"
		xmlns:v="http://schemas.microsoft.com/visio/2003/SVGExtensions/" width="5.82677in" height="8.26772in"
		viewBox="0 0 419.528 595.276" xml:space="preserve" color-interpolation-filters="sRGB" class="st10">
	<v:documentProperties v:langID="2052" v:metric="true" v:viewMarkup="false">
		<v:userDefs>
			<v:ud v:nameU="msvSubprocessMaster" v:prompt="" v:val="VT4(Rectangle)"/>
			<v:ud v:nameU="msvNoAutoConnect" v:val="VT0(1):26"/>
		</v:userDefs>
	</v:documentProperties>

	<style type="text/css">
	<![CDATA[
		.st1 {fill:#ffffff;stroke:#000000;stroke-width:0.75}
		.st2 {fill:#000000;font-family:Calibri;font-size:1.33333em}
		.st3 {fill:none;stroke:#000000;stroke-width:2}
		.st4 {font-size:1em}
		.st5 {visibility:visible}
		.st6 {fill:none;filter:url(#filter_2);stroke:#5b9bd5;stroke-opacity:0.22}
		.st7 {stroke:#000000;stroke-width:0.25}
		.st8 {fill:none;stroke:none;stroke-width:0.25}
		.st9 {fill:#000000;font-family:Calibri;font-size:1.5em}
		.st10 {fill:none;fill-rule:evenodd;font-size:12px;overflow:visible;stroke-linecap:square;stroke-miterlimit:3}
	]]>
	</style>

	<defs id="Filters">
		<filter id="filter_2">
			<feGaussianBlur stdDeviation="2"/>
		</filter>
	</defs>
	<g v:mID="6" v:index="4" v:groupContext="foregroundPage">
		<v:userDefs>
			<v:ud v:nameU="msvThemeOrder" v:val="VT0(0):26"/>
		</v:userDefs>
		<title>secureboot</title>
		<v:pageProperties v:drawingScale="0.0393701" v:pageScale="0.0393701" v:drawingUnits="24" v:shadowOffsetX="8.50394"
				v:shadowOffsetY="-8.50394"/>
		<g id="shape1-1" v:mID="1" v:groupContext="shape" transform="translate(65.3154,-270.709)">
			<title>矩形</title>
			<desc>secondary_tfm_s</desc>
			<v:userDefs>
				<v:ud v:nameU="visVersion" v:val="VT0(15):26"/>
			</v:userDefs>
			<v:textBlock v:margins="rect(4,4,4,4)" v:tabSpace="42.5197"/>
			<v:textRect cx="96.8485" cy="578.126" width="193.7" height="34.2992"/>
			<rect x="0" y="560.976" width="193.697" height="34.2992" class="st1"/>
			<text x="40.88" y="582.93" class="st2" v:langID="2052"><v:paragraph v:horizAlign="1"/><v:tabList/>secondary_tfm_s</text>		</g>
		<g id="shape2-4" v:mID="2" v:groupContext="shape" transform="translate(65.3154,-236.409)">
			<title>矩形.2</title>
			<desc>secondary_cpu0_app</desc>
			<v:userDefs>
				<v:ud v:nameU="visVersion" v:val="VT0(15):26"/>
			</v:userDefs>
			<v:textBlock v:margins="rect(4,4,4,4)" v:tabSpace="42.5197"/>
			<v:textRect cx="96.8485" cy="578.126" width="193.7" height="34.2992"/>
			<rect x="0" y="560.976" width="193.697" height="34.2992" class="st1"/>
			<text x="27.44" y="582.93" class="st2" v:langID="2052"><v:paragraph v:horizAlign="1"/><v:tabList/>secondary_cpu0_app</text>		</g>
		<g id="shape7-7" v:mID="7" v:groupContext="shape" transform="translate(65.3154,-133.512)">
			<title>矩形.7</title>
			<desc>sys_scratch</desc>
			<v:userDefs>
				<v:ud v:nameU="visVersion" v:val="VT0(15):26"/>
			</v:userDefs>
			<v:textBlock v:margins="rect(4,4,4,4)" v:tabSpace="42.5197"/>
			<v:textRect cx="96.8485" cy="578.126" width="193.7" height="34.2992"/>
			<rect x="0" y="560.976" width="193.697" height="34.2992" class="st1"/>
			<text x="59.59" y="582.93" class="st2" v:langID="2052"><v:paragraph v:horizAlign="1"/><v:tabList/>sys_scratch</text>		</g>
		<g id="shape8-10" v:mID="8" v:groupContext="shape" transform="translate(65.3154,-99.2126)">
			<title>矩形.8</title>
			<desc>sys_its</desc>
			<v:userDefs>
				<v:ud v:nameU="visVersion" v:val="VT0(15):26"/>
			</v:userDefs>
			<v:textBlock v:margins="rect(4,4,4,4)" v:tabSpace="42.5197"/>
			<v:textRect cx="96.8485" cy="578.126" width="193.7" height="34.2992"/>
			<rect x="0" y="560.976" width="193.697" height="34.2992" class="st1"/>
			<text x="75.34" y="582.93" class="st2" v:langID="2052"><v:paragraph v:horizAlign="1"/><v:tabList/>sys_its</text>		</g>
		<g id="shape10-13" v:mID="10" v:groupContext="shape" transform="translate(65.3154,-167.811)">
			<title>矩形.10</title>
			<desc>User defined partitions</desc>
			<v:userDefs>
				<v:ud v:nameU="visVersion" v:val="VT0(15):26"/>
			</v:userDefs>
			<v:textBlock v:margins="rect(4,4,4,4)" v:tabSpace="42.5197"/>
			<v:textRect cx="96.8485" cy="560.976" width="193.7" height="68.5984"/>
			<rect x="0" y="526.677" width="193.697" height="68.5984" class="st3"/>
			<text x="21.95" y="565.78" class="st2" v:langID="2052"><v:paragraph v:horizAlign="1"/><v:tabList/>User defined partitions</text>		</g>
		<g id="shape13-16" v:mID="13" v:groupContext="shape" transform="translate(65.3154,-64.9134)">
			<title>矩形.13</title>
			<desc>sys_rf</desc>
			<v:userDefs>
				<v:ud v:nameU="visVersion" v:val="VT0(15):26"/>
			</v:userDefs>
			<v:textBlock v:margins="rect(4,4,4,4)" v:tabSpace="42.5197"/>
			<v:textRect cx="96.8485" cy="578.126" width="193.7" height="34.2992"/>
			<rect x="0" y="560.976" width="193.697" height="34.2992" class="st1"/>
			<text x="77.75" y="582.93" class="st2" v:langID="2052"><v:paragraph v:horizAlign="1"/><v:tabList/>sys_rf</text>		</g>
		<g id="shape14-19" v:mID="14" v:groupContext="shape" transform="translate(65.3154,-30.6142)">
			<title>矩形.14</title>
			<desc>sys_net</desc>
			<v:userDefs>
				<v:ud v:nameU="visVersion" v:val="VT0(15):26"/>
			</v:userDefs>
			<v:textBlock v:margins="rect(4,4,4,4)" v:tabSpace="42.5197"/>
			<v:textRect cx="96.8485" cy="578.126" width="193.7" height="34.2992"/>
			<rect x="0" y="560.976" width="193.697" height="34.2992" class="st1"/>
			<text x="72.12" y="582.93" class="st2" v:langID="2052"><v:paragraph v:horizAlign="1"/><v:tabList/>sys_net</text>		</g>
		<g id="shape9-22" v:mID="9" v:groupContext="shape" transform="translate(65.3154,-30.6142)">
			<title>矩形.9</title>
			<v:userDefs>
				<v:ud v:nameU="visVersion" v:val="VT0(15):26"/>
			</v:userDefs>
			<rect x="0" y="458.079" width="193.697" height="137.197" class="st3"/>
		</g>
		<g id="shape16-24" v:mID="16" v:groupContext="shape" transform="translate(65.3154,-305.008)">
			<title>矩形.16</title>
			<desc>primary_cpu0_app</desc>
			<v:userDefs>
				<v:ud v:nameU="visVersion" v:val="VT0(15):26"/>
			</v:userDefs>
			<v:textBlock v:margins="rect(4,4,4,4)" v:tabSpace="42.5197"/>
			<v:textRect cx="96.8485" cy="578.126" width="193.7" height="34.2992"/>
			<rect x="0" y="560.976" width="193.697" height="34.2992" class="st1"/>
			<text x="35.34" y="582.93" class="st2" v:langID="2052"><v:paragraph v:horizAlign="1"/><v:tabList/>primary_cpu0_app</text>		</g>
		<g id="shape17-27" v:mID="17" v:groupContext="shape" transform="translate(65.3154,-339.307)">
			<title>矩形.17</title>
			<desc>primary_tfm_s</desc>
			<v:userDefs>
				<v:ud v:nameU="visVersion" v:val="VT0(15):26"/>
			</v:userDefs>
			<v:textBlock v:margins="rect(4,4,4,4)" v:tabSpace="42.5197"/>
			<v:textRect cx="96.8485" cy="578.126" width="193.7" height="34.2992"/>
			<rect x="0" y="560.976" width="193.697" height="34.2992" class="st1"/>
			<text x="48.78" y="582.93" class="st2" v:langID="2052"><v:paragraph v:horizAlign="1"/><v:tabList/>primary_tfm_s</text>		</g>
		<g id="shape18-30" v:mID="18" v:groupContext="shape" transform="translate(65.3154,-373.606)">
			<title>矩形.18</title>
			<desc>secondary_bl2</desc>
			<v:userDefs>
				<v:ud v:nameU="visVersion" v:val="VT0(15):26"/>
			</v:userDefs>
			<v:textBlock v:margins="rect(4,4,4,4)" v:tabSpace="42.5197"/>
			<v:textRect cx="96.8485" cy="578.126" width="193.7" height="34.2992"/>
			<rect x="0" y="560.976" width="193.697" height="34.2992" class="st1"/>
			<text x="49.41" y="582.93" class="st2" v:langID="2052"><v:paragraph v:horizAlign="1"/><v:tabList/>secondary_bl2</text>		</g>
		<g id="shape19-33" v:mID="19" v:groupContext="shape" transform="translate(65.3154,-407.906)">
			<title>矩形.19</title>
			<desc>primary_bl2</desc>
			<v:userDefs>
				<v:ud v:nameU="visVersion" v:val="VT0(15):26"/>
			</v:userDefs>
			<v:textBlock v:margins="rect(4,4,4,4)" v:tabSpace="42.5197"/>
			<v:textRect cx="96.8485" cy="578.126" width="193.7" height="34.2992"/>
			<rect x="0" y="560.976" width="193.697" height="34.2992" class="st1"/>
			<text x="57.31" y="582.93" class="st2" v:langID="2052"><v:paragraph v:horizAlign="1"/><v:tabList/>primary_bl2</text>		</g>
		<g id="shape20-36" v:mID="20" v:groupContext="shape" transform="translate(65.3154,-442.205)">
			<title>矩形.20</title>
			<desc>secondary_manifest (4K)</desc>
			<v:userDefs>
				<v:ud v:nameU="visVersion" v:val="VT0(15):26"/>
			</v:userDefs>
			<v:textBlock v:margins="rect(4,4,4,4)" v:tabSpace="42.5197"/>
			<v:textRect cx="96.8485" cy="578.126" width="193.7" height="34.2992"/>
			<rect x="0" y="560.976" width="193.697" height="34.2992" class="st1"/>
			<text x="31.01" y="573.33" class="st2" v:langID="2052"><v:paragraph v:horizAlign="1"/><v:tabList/>secondary_manifest<v:newlineChar/><tspan
						x="83.79" dy="1.2em" class="st4">(</tspan>4K)</text>		</g>
		<g id="shape21-40" v:mID="21" v:groupContext="shape" transform="translate(65.3154,-476.504)">
			<title>矩形.21</title>
			<desc>primary_manifest (4K)</desc>
			<v:userDefs>
				<v:ud v:nameU="visVersion" v:val="VT0(15):26"/>
			</v:userDefs>
			<v:textBlock v:margins="rect(4,4,4,4)" v:tabSpace="42.5197"/>
			<v:textRect cx="96.8485" cy="578.126" width="193.7" height="34.2992"/>
			<rect x="0" y="560.976" width="193.697" height="34.2992" class="st1"/>
			<text x="38.91" y="573.33" class="st2" v:langID="2052"><v:paragraph v:horizAlign="1"/><v:tabList/>primary_manifest<v:newlineChar/><tspan
						x="83.79" dy="1.2em" class="st4">(</tspan>4K)</text>		</g>
		<g id="shape22-44" v:mID="22" v:groupContext="shape" transform="translate(65.3154,-510.803)">
			<title>矩形.22</title>
			<desc>bl1_control (12K)</desc>
			<v:userDefs>
				<v:ud v:nameU="visVersion" v:val="VT0(15):26"/>
			</v:userDefs>
			<v:textBlock v:margins="rect(4,4,4,4)" v:tabSpace="42.5197"/>
			<v:textRect cx="96.8485" cy="578.126" width="193.7" height="34.2992"/>
			<rect x="0" y="560.976" width="193.697" height="34.2992" class="st1"/>
			<text x="59.44" y="573.33" class="st2" v:langID="2052"><v:paragraph v:horizAlign="1"/><v:tabList/>bl1_control<v:newlineChar/><tspan
						x="79.73" dy="1.2em" class="st4">(</tspan>12K)</text>		</g>
		<g id="shape11-48" v:mID="11" v:groupContext="shape" transform="translate(65.3154,-236.409)">
			<title>矩形.11</title>
			<v:userDefs>
				<v:ud v:nameU="visVersion" v:val="VT0(15):26"/>
			</v:userDefs>
			<rect x="0" y="286.583" width="193.697" height="308.693" class="st3"/>
		</g>
		<g id="shape23-50" v:mID="23" v:groupContext="shape" transform="translate(259.012,-442.205)">
			<title>右括号</title>
			<v:userDefs>
				<v:ud v:nameU="visVersion" v:prompt="" v:val="VT0(15):26"/>
			</v:userDefs>
			<g id="shadow23-51" v:groupContext="shadow" v:shadowOffsetX="0.345598" v:shadowOffsetY="-1.97279" v:shadowType="1"
					transform="matrix(1,0,0,1,0.345598,1.97279)" class="st5">
				<path d="M0 595.28 A43.2202 11.4799 -180 0 0 16.14 588.42 L16.14 560.98 L32.28 560.98 L16.14 560.98 L16.14 533.54
							 A43.2202 11.4799 -180 0 0 0 526.68" class="st6"/>
			</g>
			<path d="M0 595.28 A43.2202 11.4799 -180 0 0 16.14 588.42 L16.14 560.98 L32.28 560.98 L16.14 560.98 L16.14 533.54 A43.2202
						 11.4799 -180 0 0 0 526.68" class="st7"/>
		</g>
		<g id="shape24-58" v:mID="24" v:groupContext="shape" transform="translate(291.295,-468.437)">
			<title>工作表.24</title>
			<desc>BL2 Signing Info</desc>
			<v:textBlock v:margins="rect(4,4,4,4)" v:tabSpace="42.5197"/>
			<v:textRect cx="55.1162" cy="587.209" width="110.24" height="16.1333"/>
			<rect x="0" y="579.142" width="110.232" height="16.1333" class="st8"/>
			<text x="13.65" y="581.81" class="st9" v:langID="2052"><v:paragraph v:horizAlign="1"/><v:tabList/>BL2 Signing <tspan
						x="40.63" dy="1.2em" class="st4">Info</tspan></text>		</g>
		<g id="shape25-62" v:mID="25" v:groupContext="shape" transform="translate(259.012,-373.606)">
			<title>右括号.25</title>
			<v:userDefs>
				<v:ud v:nameU="visVersion" v:prompt="" v:val="VT0(15):26"/>
			</v:userDefs>
			<g id="shadow25-63" v:groupContext="shadow" v:shadowOffsetX="0.345598" v:shadowOffsetY="-1.97279" v:shadowType="1"
					transform="matrix(1,0,0,1,0.345598,1.97279)" class="st5">
				<path d="M0 595.28 A43.2202 11.4799 -180 0 0 16.14 588.42 L16.14 560.98 L32.28 560.98 L16.14 560.98 L16.14 533.54
							 A43.2202 11.4799 -180 0 0 0 526.68" class="st6"/>
			</g>
			<path d="M0 595.28 A43.2202 11.4799 -180 0 0 16.14 588.42 L16.14 560.98 L32.28 560.98 L16.14 560.98 L16.14 533.54 A43.2202
						 11.4799 -180 0 0 0 526.68" class="st7"/>
		</g>
		<g id="shape26-70" v:mID="26" v:groupContext="shape" transform="translate(291.295,-399.839)">
			<title>工作表.26</title>
			<desc>BL2 OTA</desc>
			<v:textBlock v:margins="rect(4,4,4,4)" v:tabSpace="42.5197"/>
			<v:textRect cx="38.6044" cy="587.209" width="77.21" height="16.1333"/>
			<rect x="0" y="579.142" width="77.2088" height="16.1333" class="st8"/>
			<text x="7.78" y="592.61" class="st9" v:langID="2052"><v:paragraph v:horizAlign="1"/><v:tabList/>BL2 OTA</text>		</g>
		<g id="shape27-73" v:mID="27" v:groupContext="shape" transform="translate(259.012,-236.409)">
			<title>右括号.27</title>
			<v:userDefs>
				<v:ud v:nameU="visVersion" v:prompt="" v:val="VT0(15):26"/>
			</v:userDefs>
			<g id="shadow27-74" v:groupContext="shadow" v:shadowOffsetX="0.345598" v:shadowOffsetY="-1.97279" v:shadowType="1"
					transform="matrix(1,0,0,1,0.345598,1.97279)" class="st5">
				<path d="M0 595.28 A43.2202 22.9599 -180 0 0 16.14 581.56 L16.14 526.68 L32.28 526.68 L16.14 526.68 L16.14 471.8
							 A43.2202 22.9599 -180 0 0 0 458.08" class="st6"/>
			</g>
			<path d="M0 595.28 A43.2202 22.9599 -180 0 0 16.14 581.56 L16.14 526.68 L32.28 526.68 L16.14 526.68 L16.14 471.8 A43.2202
						 22.9599 -180 0 0 0 458.08" class="st7"/>
		</g>
		<g id="shape28-81" v:mID="28" v:groupContext="shape" transform="translate(291.295,-296.941)">
			<title>工作表.28</title>
			<desc>Application OTA</desc>
			<v:textBlock v:margins="rect(4,4,4,4)" v:tabSpace="42.5197"/>
			<v:textRect cx="55.1162" cy="587.209" width="110.24" height="16.1333"/>
			<rect x="0" y="579.142" width="110.232" height="16.1333" class="st8"/>
			<text x="13.65" y="581.81" class="st9" v:langID="2052"><v:paragraph v:horizAlign="1"/><v:tabList/>Application <tspan
						x="39.56" dy="1.2em" class="st4">OTA</tspan></text>		</g>
	</g>
</svg>
