<?xml version="1.0" encoding="UTF-8" standalone="no"?><svg xmlns="http://www.w3.org/2000/svg" xmlns:xlink="http://www.w3.org/1999/xlink" contentStyleType="text/css" height="869px" preserveAspectRatio="none" style="width:403px;height:869px;background:#FFFFFF;" version="1.1" viewBox="0 0 403 869" width="403px" zoomAndPan="magnify"><defs/><g><rect fill="#FFFFFF" height="40" rx="12.5" ry="12.5" style="stroke:#000000;stroke-width:1.0;" width="50" x="105.5" y="7"/><text fill="#000000" font-family="Lato,sans-serif" font-size="12" lengthAdjust="spacing" textLength="40" x="110.5" y="31.6414">READY</text><rect fill="#FFFFFF" height="40" rx="12.5" ry="12.5" style="stroke:#000000;stroke-width:1.0;" width="63" x="15" y="123"/><text fill="#000000" font-family="Lato,sans-serif" font-size="12" lengthAdjust="spacing" textLength="53" x="20" y="147.6414">WRITING</text><rect fill="#FFFFFF" height="40" rx="12.5" ry="12.5" style="stroke:#000000;stroke-width:1.0;" width="79" x="7" y="239"/><text fill="#000000" font-family="Lato,sans-serif" font-size="12" lengthAdjust="spacing" textLength="69" x="12" y="263.6414">CANDIDATE</text><rect fill="#FFFFFF" height="40" rx="12.5" ry="12.5" style="stroke:#000000;stroke-width:1.0;" width="63" x="100" y="369"/><text fill="#000000" font-family="Lato,sans-serif" font-size="12" lengthAdjust="spacing" textLength="53" x="105" y="393.6414">STAGED *</text><rect fill="#FFFFFF" height="40" rx="12.5" ry="12.5" style="stroke:#000000;stroke-width:1.0;" width="51" x="173" y="239"/><text fill="#000000" font-family="Lato,sans-serif" font-size="12" lengthAdjust="spacing" textLength="41" x="178" y="263.6414">FAILED</text><rect fill="#FFFFFF" height="40" rx="12.5" ry="12.5" style="stroke:#000000;stroke-width:1.0;" width="75" x="226" y="369"/><text fill="#000000" font-family="Lato,sans-serif" font-size="12" lengthAdjust="spacing" textLength="65" x="231" y="393.6414">REJECTED *</text><rect fill="#FFFFFF" height="40" rx="12.5" ry="12.5" style="stroke:#000000;stroke-width:1.0;" width="50" x="179.5" y="499"/><text fill="#000000" font-family="Lato,sans-serif" font-size="12" lengthAdjust="spacing" textLength="40" x="184.5" y="523.6414">TRIAL *</text><rect fill="#FFFFFF" height="40" rx="12.5" ry="12.5" style="stroke:#000000;stroke-width:1.0;" width="66" x="171.5" y="615"/><text fill="#000000" font-family="Lato,sans-serif" font-size="12" lengthAdjust="spacing" textLength="56" x="176.5" y="639.6414">UPDATED</text><rect fill="#FFFFFF" height="40" rx="12.5" ry="12.5" style="stroke:#000000;stroke-width:1.0;" width="50" x="179.5" y="731"/><text fill="#000000" font-family="Lato,sans-serif" font-size="12" lengthAdjust="spacing" textLength="40" x="184.5" y="755.6414">READY</text><!--MD5=[28b091a9324bc665227cbdd5c64568c5]
link Start to Writing--><g id="link_Start_Writing"><path d="M116.44,47.08 C101.9,66.81 79.19,97.63 63.62,118.76 " fill="none" id="Start-to-Writing" style="stroke:#0000FF;stroke-width:1.0;"/><polygon fill="#0000FF" points="60.61,122.86,69.1714,117.9914,63.5779,118.8362,62.7332,113.2427,60.61,122.86" style="stroke:#0000FF;stroke-width:1.0;"/><text fill="#000000" font-family="Consolas,Menlo,monospace" font-size="12" lengthAdjust="spacing" textLength="35" x="95.5" y="89.9883">start</text></g><!--MD5=[809ec20dfa1295c4642186e63aa045f8]
link Writing to Writing--><g id="link_Writing_Writing"><path d="M78.32,132.68 C96.33,130.67 113,134.11 113,143 C113,151.06 99.31,154.64 83.33,153.74 " fill="none" id="Writing-to-Writing" style="stroke:#0000FF;stroke-width:1.0;"/><polygon fill="#0000FF" points="78.32,153.32,86.9444,158.0761,83.3016,153.7482,87.6295,150.1055,78.32,153.32" style="stroke:#0000FF;stroke-width:1.0;"/><text fill="#000000" font-family="Consolas,Menlo,monospace" font-size="12" lengthAdjust="spacing" textLength="35" x="119" y="147.9883">write</text></g><!--MD5=[c452d5c1487cc0f2a16ec09e1ebeb498]
link Writing to Candidate--><g id="link_Writing_Candidate"><path d="M46.5,163.08 C46.5,182.48 46.5,212.61 46.5,233.7 " fill="none" id="Writing-to-Candidate" style="stroke:#0000FF;stroke-width:1.0;"/><polygon fill="#0000FF" points="46.5,238.86,50.5,229.86,46.5,233.86,42.5,229.86,46.5,238.86" style="stroke:#0000FF;stroke-width:1.0;"/><text fill="#000000" font-family="Consolas,Menlo,monospace" font-size="12" lengthAdjust="spacing" textLength="42" x="47.5" y="205.9883">finish</text></g><!--MD5=[1e580f2a5c35a06e4aed74591dc8f2d0]
link Writing to Failed--><g id="link_Writing_Failed"><path d="M71.94,163.08 C98.68,183.14 140.71,214.66 168.92,235.81 " fill="none" id="Writing-to-Failed" style="stroke:#0000FF;stroke-width:1.0;"/><polygon fill="#0000FF" points="172.98,238.86,168.18,230.26,168.98,235.86,163.38,236.66,172.98,238.86" style="stroke:#0000FF;stroke-width:1.0;"/><text fill="#000000" font-family="Consolas,Menlo,monospace" font-size="12" lengthAdjust="spacing" textLength="42" x="133.5" y="205.9883">cancel</text></g><!--MD5=[86e4efad9860276429e6c81242466072]
link Candidate to Staged--><g id="link_Candidate_Staged"><path d="M43.01,279.33 C40.98,296.29 40.65,320.99 51.5,339 C61.41,355.45 79.16,367.14 95.43,374.97 " fill="none" id="Candidate-to-Staged" style="stroke:#8B0000;stroke-width:1.0;"/><polygon fill="#8B0000" points="99.97,377.07,93.479,369.6628,95.4315,374.972,90.1222,376.9244,99.97,377.07" style="stroke:#8B0000;stroke-width:1.0;"/><text fill="#000000" font-family="Consolas,Menlo,monospace" font-size="12" lengthAdjust="spacing" textLength="49" x="52.5" y="328.9883">install</text></g><!--MD5=[6e8b06a321fbf587dbbb055d0b4e0f9e]
link Candidate to Failed--><g id="link_Candidate_Failed"><path d="M86.04,259 C111.55,259 144.25,259 167.81,259 " fill="none" id="Candidate-to-Failed" style="stroke:#0000FF;stroke-width:1.0;"/><polygon fill="#0000FF" points="172.99,259,163.99,255,167.99,259,163.99,263,172.99,259" style="stroke:#0000FF;stroke-width:1.0;"/><text fill="#000000" font-family="Consolas,Menlo,monospace" font-size="12" lengthAdjust="spacing" textLength="42" x="108.5" y="252.9883">cancel</text></g><!--MD5=[d4d7d25629e036e3232ad0960ebf72b6]
link Staged to Trial--><g id="link_Staged_Trial"><path d="M132.91,409.06 C134.86,425.84 139.5,450.43 150.5,469 C156.82,479.67 166.22,489.36 175.41,497.24 " fill="none" id="Staged-to-Trial" style="stroke:#8B0000;stroke-width:1.0;stroke-dasharray:7.0,7.0;"/><polygon fill="#8B0000" points="179.33,500.51,174.9929,491.6675,175.4947,497.3021,169.8602,497.8039,179.33,500.51" style="stroke:#8B0000;stroke-width:1.0;"/><text fill="#000000" font-family="Consolas,Menlo,monospace" font-size="12" lengthAdjust="spacing" textLength="42" x="163.5" y="452.3296">reboot</text><text fill="#000000" font-family="Lato,sans-serif" font-size="12" lengthAdjust="spacing" textLength="3" x="205.5" y="451.8375">:</text><text fill="#000000" font-family="Lato,sans-serif" font-size="12" font-style="italic" lengthAdjust="spacing" textLength="69" x="151.5" y="466.2296">install success</text></g><!--MD5=[6b849a9d54236769877241b12840d8d2]
reverse link Failed to Staged--><g id="link_Failed_Staged"><path d="M190.93,283.94 C185.42,299.99 177.23,321.34 167.5,339 C161.79,349.35 154.19,360.03 147.44,368.76 " fill="none" id="Failed-backto-Staged" style="stroke:#8B0000;stroke-width:1.0;stroke-dasharray:7.0,7.0;"/><polygon fill="#8B0000" points="192.55,279.14,185.883,286.3892,190.9517,283.8777,193.4633,288.9464,192.55,279.14" style="stroke:#8B0000;stroke-width:1.0;"/><text fill="#000000" font-family="Consolas,Menlo,monospace" font-size="12" lengthAdjust="spacing" textLength="42" x="190" y="322.3296">reboot</text><text fill="#000000" font-family="Lato,sans-serif" font-size="12" lengthAdjust="spacing" textLength="3" x="232" y="321.8375">:</text><text fill="#000000" font-family="Lato,sans-serif" font-size="12" font-style="italic" lengthAdjust="spacing" textLength="60" x="182.5" y="336.2296">install failed</text></g><!--MD5=[6b849a9d54236769877241b12840d8d2]
reverse link Failed to Staged--><g id="link_Failed_Staged"><path d="M168.12,269.26 C149.34,276.73 126.74,289.31 115.5,309 C104.88,327.59 112.67,352.18 120.66,368.95 " fill="none" id="Failed-backto-Staged-1" style="stroke:#8B0000;stroke-width:1.0;"/><polygon fill="#8B0000" points="172.81,267.47,162.975,266.9473,168.1396,269.2553,165.8315,274.4199,172.81,267.47" style="stroke:#8B0000;stroke-width:1.0;"/><text fill="#000000" font-family="Consolas,Menlo,monospace" font-size="12" lengthAdjust="spacing" textLength="42" x="116.5" y="328.9883">reject</text></g><!--MD5=[4d415c9b773123c37ce42f12237de1fc]
link Trial to Updated--><g id="link_Trial_Updated"><path d="M204.5,539.08 C204.5,558.48 204.5,588.61 204.5,609.7 " fill="none" id="Trial-to-Updated" style="stroke:#8B0000;stroke-width:1.0;"/><polygon fill="#8B0000" points="204.5,614.86,208.5,605.86,204.5,609.86,200.5,605.86,204.5,614.86" style="stroke:#8B0000;stroke-width:1.0;"/><text fill="#000000" font-family="Consolas,Menlo,monospace" font-size="12" lengthAdjust="spacing" textLength="42" x="205.5" y="581.9883">accept</text></g><!--MD5=[71ab68107f7e180decc84935bd3705da]
reverse link Start to Failed--><g id="link_Start_Failed"><path d="M139.23,52 C150.63,83.9 170.75,142.18 184.5,193 C188.63,208.27 192.35,225.81 194.91,238.82 " fill="none" id="Start-backto-Failed" style="stroke:#0000FF;stroke-width:1.0;"/><polygon fill="#0000FF" points="137.47,47.11,136.7338,56.9313,139.1535,51.8181,144.2667,54.2377,137.47,47.11" style="stroke:#0000FF;stroke-width:1.0;"/><text fill="#000000" font-family="Consolas,Menlo,monospace" font-size="12" lengthAdjust="spacing" textLength="35" x="177.5" y="147.9883">clean</text></g><!--MD5=[5b18d785e1ed9c85922a1d1dbb6dfde5]
reverse link Rejected to Trial--><g id="link_Rejected_Trial"><path d="M252.49,413.88 C241.2,438.38 223.85,476.03 213.39,498.71 " fill="none" id="Rejected-backto-Trial" style="stroke:#8B0000;stroke-width:1.0;"/><polygon fill="#8B0000" points="254.67,409.16,247.2628,415.651,252.572,413.6985,254.5244,419.0078,254.67,409.16" style="stroke:#8B0000;stroke-width:1.0;"/><text fill="#000000" font-family="Consolas,Menlo,monospace" font-size="12" lengthAdjust="spacing" textLength="42" x="240.5" y="458.9883">reject</text></g><!--MD5=[8730496acf69e4d93e6ebba34c197634]
reverse link Failed to Rejected--><g id="link_Failed_Rejected"><path d="M228.72,272.5 C243.9,280.52 260.86,292.54 269.5,309 C279.28,327.63 275.23,352.21 270.38,368.97 " fill="none" id="Failed-backto-Rejected" style="stroke:#8B0000;stroke-width:1.0;stroke-dasharray:7.0,7.0;"/><polygon fill="#8B0000" points="224.08,270.14,230.2826,277.7904,228.5349,272.4103,233.915,270.6626,224.08,270.14" style="stroke:#8B0000;stroke-width:1.0;"/><text fill="#000000" font-family="Consolas,Menlo,monospace" font-size="12" lengthAdjust="spacing" textLength="42" x="276.5" y="322.3296">reboot</text><text fill="#000000" font-family="Lato,sans-serif" font-size="12" lengthAdjust="spacing" textLength="3" x="318.5" y="321.8375">:</text><text fill="#000000" font-family="Lato,sans-serif" font-size="12" font-style="italic" lengthAdjust="spacing" textLength="39" x="279.5" y="336.2296">rollback</text></g><!--MD5=[91632b8e9666b14c55229d961249920f]
link Trial to Failed--><g id="link_Trial_Failed"><path d="M229.82,508.82 C248.89,500.81 274.54,487.56 291.5,469 C340.87,414.97 372.29,369.09 330.5,309 C307.81,276.37 260.69,265.42 229.33,261.78 " fill="none" id="Trial-to-Failed" style="stroke:#8B0000;stroke-width:1.0;stroke-dasharray:7.0,7.0;"/><polygon fill="#8B0000" points="224.06,261.22,232.5867,266.1491,229.032,261.7486,233.4325,258.194,224.06,261.22" style="stroke:#8B0000;stroke-width:1.0;"/><text fill="#000000" font-family="Consolas,Menlo,monospace" font-size="12" lengthAdjust="spacing" textLength="42" x="350.5" y="387.3296">reboot</text><text fill="#000000" font-family="Lato,sans-serif" font-size="12" lengthAdjust="spacing" textLength="3" x="392.5" y="386.8375">:</text><text fill="#000000" font-family="Lato,sans-serif" font-size="12" font-style="italic" lengthAdjust="spacing" textLength="39" x="353.5" y="401.2296">rollback</text></g><!--MD5=[43a8c4662c8a2715cf5aeba88f635b26]
link Updated to End--><g id="link_Updated_End"><path d="M204.5,655.08 C204.5,674.48 204.5,704.61 204.5,725.7 " fill="none" id="Updated-to-End" style="stroke:#0000FF;stroke-width:1.0;"/><polygon fill="#0000FF" points="204.5,730.86,208.5,721.86,204.5,725.86,200.5,721.86,204.5,730.86" style="stroke:#0000FF;stroke-width:1.0;"/><text fill="#000000" font-family="Consolas,Menlo,monospace" font-size="12" lengthAdjust="spacing" textLength="35" x="205.5" y="697.9883">clean</text></g><rect fill="#DDDDDD" height="69.5684" id="_legend" rx="7.5" ry="7.5" style="stroke:#000000;stroke-width:1.0;" width="281" x="54.25" y="784"/><text fill="#000000" font-family="Consolas,Menlo,monospace" font-size="12" lengthAdjust="spacing" textLength="7" x="67.25" y="802.3296">*</text><text fill="#000000" font-family="Lato,sans-serif" font-size="12" lengthAdjust="spacing" textLength="207" x="83.25" y="801.8375">Transient states that always transition at</text><text fill="#000000" font-family="Lato,sans-serif" font-size="12" font-weight="bold" lengthAdjust="spacing" textLength="37" x="292.25" y="801.8375">reboot</text><text fill="#0000FF" font-family="Consolas,Menlo,monospace" font-size="12" lengthAdjust="spacing" text-decoration="line-through" textLength="21" x="60.25" y="816.7217">———</text><text fill="#000000" font-family="Lato,sans-serif" font-size="12" lengthAdjust="spacing" textLength="229" x="83.25" y="816.2296">Blue transitions apply to a single component</text><text fill="#8B0000" font-family="Consolas,Menlo,monospace" font-size="12" lengthAdjust="spacing" text-decoration="line-through" textLength="21" x="60.25" y="831.1138">———</text><text fill="#000000" font-family="Lato,sans-serif" font-size="12" lengthAdjust="spacing" textLength="208" x="83.25" y="830.6217">Red transitions apply to all compoments</text><text fill="#000000" font-family="Consolas,Menlo,monospace" font-size="12" lengthAdjust="spacing" textLength="21" x="60.25" y="845.5059">---</text><text fill="#000000" font-family="Lato,sans-serif" font-size="12" lengthAdjust="spacing" textLength="197" x="83.25" y="845.0138">Dashed lines indicate a transition over</text><text fill="#000000" font-family="Lato,sans-serif" font-size="12" font-weight="bold" lengthAdjust="spacing" textLength="37" x="282.25" y="845.0138">reboot</text></g></svg>